<?xml version="1.0" encoding="utf-8"?>
<!-- Generator: Adobe Illustrator 28.3.0, SVG Export Plug-In . SVG Version: 6.00 Build 0)  -->
<svg version="1.1" id="Layer_1" xmlns="http://www.w3.org/2000/svg" xmlns:xlink="http://www.w3.org/1999/xlink" x="0px" y="0px"
	 viewBox="0 0 512 512" style="enable-background:new 0 0 512 512;" xml:space="preserve">
<style type="text/css">
	.st0{fill-rule:evenodd;clip-rule:evenodd;fill:#FFFFFF;}
</style>
<path class="st0" d="M203.7,175.7c-4.2-4.2-10-6.8-16.5-6.8s-12.3,2.6-16.5,6.8c-4.2,4.2-6.8,10-6.8,16.5s2.6,12.3,6.8,16.5
	c4.2,4.2,10,6.8,16.5,6.8s12.3-2.6,16.5-6.8s6.8-10,6.8-16.5S207.9,180,203.7,175.7z M187.2,156.1c10,0,19,4,25.5,10.6
	s10.6,15.5,10.6,25.5s-4,19-10.6,25.5s-15.5,10.6-25.5,10.6s-19-4-25.5-10.6s-10.6-15.5-10.6-25.5s4-19,10.6-25.5
	S177.3,156.1,187.2,156.1z M191.8,249.1h-9c-16.9,0-32.4,6.6-43.9,17.2c-10,9.3-17.2,21.7-19.8,35.6h136.6
	c-2.6-13.9-9.8-26.3-19.8-35.6C224.1,255.6,208.7,249.1,191.8,249.1z M182.7,236.3h9c20.2,0,38.7,7.8,52.6,20.6
	c14,12.9,23.2,30.8,24.8,50.9c0.3,3.5-2.4,6.6-5.9,6.9c-0.2,0-0.3,0-0.5,0v0H111.7c-3.5,0-6.4-2.9-6.4-6.4c0-0.3,0-0.6,0.1-0.8
	c1.7-19.9,10.9-37.7,24.8-50.5C144,244.1,162.5,236.3,182.7,236.3L182.7,236.3z M483.2,377L483.2,377
	C483.2,376.9,483.2,376.9,483.2,377z M28.8,377L28.8,377L28.8,377C28.8,376.9,28.8,376.9,28.8,377z M483.2,377L483.2,377L483.2,377
	L483.2,377L483.2,377L483.2,377z M483.2,412c0,7.5-3.8,14.3-9.9,19.3c-6.4,5.3-15.4,8.6-25.3,8.6H64c-9.9,0-18.9-3.3-25.3-8.6
	c-6.1-5-9.9-11.9-9.9-19.3v-35l0,0c0,0,0,0.1,0,0.1c0.4-0.3,1-0.5,1.8-0.5h158.5l16.8,24c1.2,1.8,3.2,2.7,5.2,2.7v0h89.6
	c2.4,0,4.5-1.3,5.6-3.2l16.5-23.6h158.5c0.7,0,1.4,0.2,1.8,0.5l0.1,0.1L483.2,412z M355.9,72.5c-1.2-0.5-2.6-0.6-4-0.1l0,0
	c-1.3,0.5-2.3,1.5-2.9,2.7c-0.5,1.2-0.6,2.6-0.1,4l0.9,2.3c0.1,0.2,0.2,0.5,0.3,0.8c14.7,38.7,29.5,77.5,44.3,116.2
	c0.5,1.3,1.5,2.3,2.7,2.9c1.2,0.5,2.6,0.6,4,0.1l0,0c1.3-0.5,2.3-1.5,2.9-2.7c0.5-1.2,0.6-2.6,0.1-4l-41.2-108
	c-0.1-0.2-0.2-0.4-0.2-0.6l-4-10.6C358.1,74,357.1,73,355.9,72.5L355.9,72.5z M347.4,60.4c4.6-1.8,9.5-1.5,13.7,0.4
	c4.2,1.9,7.7,5.4,9.5,10l2.6,6.8h69.7c9.3,0,17.8,3.8,23.9,9.9s9.9,14.6,9.9,23.9h0l0.5,252.3h4.2c3.8,0,7.3,1.3,9.9,3.5
	c0.2,0.1,0.3,0.3,0.5,0.4c2.7,2.4,4.3,5.7,4.3,9.3V412c0,11.4-5.6,21.7-14.6,29.2c-8.6,7.1-20.5,11.6-33.4,11.6H64
	c-12.9,0-24.8-4.4-33.4-11.6c-9-7.4-14.6-17.7-14.6-29.2V377c0-3.9,1.8-7.3,4.8-9.7c2.6-2.1,6.1-3.5,9.9-3.5h5.3l-0.7-252.3h0
	c0-9.3,3.8-17.8,9.9-23.9s14.6-9.9,23.9-9.9h266.7c0-2.7,0.5-5.3,1.6-7.7c1.9-4.2,5.3-7.6,9.9-9.4L347.4,60.4L347.4,60.4z
	 M398.9,145.2l-14.9-39c1,0.1,3.4,1.3,6.3,3.2c2.7,1.8,5.5,4.3,7.7,7.4c0.1,0.2,0.2,0.4,0.4,0.5c1,1.5,1.8,3.1,2.5,4.8
	c2.2,5.7,1.9,11.7,0.6,16.5C400.6,142,399.6,144.4,398.9,145.2L398.9,145.2z M379.5,94.1l-1.4-3.8h64.9c5.8,0,11.1,2.4,14.9,6.2
	s6.2,9.1,6.2,14.9h0l0.5,252.3H319.6v0c-2,0-4,0.9-5.2,2.7l-16.8,24h-83L198,367c-1.1-1.9-3.2-3.2-5.6-3.2H48.6L48,111.5h0
	c0-5.8,2.4-11.1,6.2-14.9s9.1-6.2,14.9-6.2h259.3L310.9,107H74.8c-3.5,0-6.4,2.9-6.4,6.4v228.9c0,3.5,2.9,6.4,6.4,6.4h368.9
	c3.5,0,6.4-2.9,6.4-6.4V113.4c0-3.5-2.9-6.4-6.4-6.4h-37c-2.8-3.4-6.1-6.2-9.3-8.3C390.7,94.4,383.5,92.8,379.5,94.1L379.5,94.1z
	 M311,202c4-0.1,8.8,0,15.1,0.2l56.9,2c1.9,3.9,5.1,6.9,8.9,8.6c4.2,1.9,9.1,2.2,13.7,0.4l0.1,0c4.6-1.8,8-5.2,9.9-9.4
	c1.9-4.2,2.2-9.1,0.4-13.7l-12.5-32.8c3.9-1.7,8.2-7.7,10.3-15.3c1.7-6.4,2.2-14.3-0.2-22.1h23.6V336H81.1V119.8h216.4l-2,1.9
	c-17.7,16.5-20.7,17.6-37,23.6c-3.3,1.2-7.1,2.6-11.3,4.2c-6.4,2.5-11.3,7.2-14.1,12.9c-2.8,5.8-3.3,12.5-0.9,18.8l7.2,18.8
	c2.4,6.3,7.3,11,13.2,13.5c5.8,2.4,12.6,2.7,19.1,0.2l0,0l0.1,0c1.1-0.4,2.3-0.9,3.5-1.4l14.7,22.7c7.3,11.2,13.6,8.3,18.9,6
	c0.3-0.1,0.5-0.2,1-0.4l7.9-3c0.9-0.3,1.7-0.7,2.4-1.2c2.2-1.5,3.8-3.6,4.5-6c0.7-2.4,0.7-4.9-0.3-7.4c-0.3-0.8-0.8-1.7-1.3-2.5
	L311,202L311,202z M287.2,145.7c4.5-3.3,9.6-7.7,17.1-14.7l13.3-12.7c0.2-0.2,0.4-0.4,0.6-0.6l23.2-22.2
	c10.5,29,23.6,68.8,35.5,95.7l-50.4-1.8c-10.3-0.3-17.1-0.4-22.6,0.2L287.2,145.7L287.2,145.7z M287.3,207.4l13.4,20.6
	c1.3,2,2.3,1.6,3,1.3c0.7-0.3,1.3-0.6,1.6-0.7l6.4-2.4L297,203.9C294,204.8,291,205.9,287.3,207.4L287.3,207.4z M275.1,198.6
	c0.2-0.1,0.4-0.2,0.6-0.2c1.1-0.4,2-0.8,2.9-1.2c5.2-2.1,9.1-3.7,12.7-4.9L276,152.2c-3.6,1.6-7.7,3.1-13.1,5.1
	c-3.1,1.1-6.6,2.4-11.1,4.2l0,0c-3.3,1.3-5.8,3.6-7.1,6.5c-1.3,2.7-1.6,5.9-0.5,8.8l7.2,18.8c1.1,2.9,3.4,5.1,6.2,6.2
	c2.9,1.2,6.4,1.3,9.6,0.1l0,0C270.6,200.4,273,199.5,275.1,198.6L275.1,198.6z"/>
</svg>
