<?xml version="1.0" encoding="utf-8"?>
<!-- Generator: Adobe Illustrator 28.3.0, SVG Export Plug-In . SVG Version: 6.00 Build 0)  -->
<svg version="1.1" id="Layer_1" xmlns="http://www.w3.org/2000/svg" xmlns:xlink="http://www.w3.org/1999/xlink" x="0px" y="0px"
	 viewBox="0 0 512 512" style="enable-background:new 0 0 512 512;" xml:space="preserve">
<style type="text/css">
	.st0{fill-rule:evenodd;clip-rule:evenodd;fill:#FFFFFF;}
</style>
<path class="st0" d="M388.8,269v-8.1c0-19.6-29.6-19.6-29.6,0v8.1H388.8z M348.2,269v-8.1c0-34.1,51.6-34.1,51.6,0v8.1h14.4
	c5.6,0,10.7,3.8,11.4,9.4l11,85.8c1.5,11.6-8.8,20.5-20.4,20.5h-84.5c-11.6,0-21.8-8.9-20.4-20.5l11-85.8c0.7-5.6,5.8-9.4,11.4-9.4
	H348.2z M359.2,292.3c-0.1,3-2.7,5.4-5.7,5.3c-2.9-0.1-5.2-2.4-5.3-5.3V280l-15,0.1l-11,85.5c-0.6,4.8,4.2,8.2,9.5,8.2h84.5
	c4.9,0,10.1-3.2,9.5-8.2l-11-85.5l-15-0.1v12.2c-0.1,3-2.7,5.4-5.7,5.3c-2.9-0.1-5.2-2.4-5.3-5.3V280h-29.6L359.2,292.3L359.2,292.3
	z M110.7,237.1H64.6c4.3,17.9,26.8,24.2,39.9,11.2C107.6,245.2,109.7,241.3,110.7,237.1z M169.2,237.1H123
	c4.3,17.9,26.8,24.2,39.9,11.2C166,245.2,168.1,241.3,169.2,237.1z M227.6,237.1h-46.1c4.3,17.9,26.8,24.2,39.9,11.2
	C224.4,245.2,226.6,241.3,227.6,237.1z M286,237.1h-46.1c4.3,17.9,26.8,24.2,39.9,11.2C282.8,245.2,285,241.3,286,237.1L286,237.1z
	 M133.3,184.6l-8.4,41.5h44.9v-41.5L133.3,184.6z M113.7,226.1l8.4-41.5H85.9L67,226.1H113.7z M228.5,184.6l8.4,41.5h46.7
	l-18.9-41.5H228.5z M225.7,226.1l-8.4-41.5h-36.5v41.5H225.7z M283.9,393.4H66.7v15.3h217.2V393.4z M65.7,382.4h6.7V262.6
	C60.6,256.9,53,244.9,53,231.7l0.5-2.5l23.8-52.3c0.9-2,2.9-3.4,5.1-3.4h185.8c2.2,0,4.2,1.2,5.1,3.2l23.8,52.4
	c1.9,2.6,0.2,24.1-18.9,33.4v119.8h6.7c5.5,0,10,4.5,10,10v17.2c0,5.5-4.5,10-10,10H65.7c-5.5,0-10-4.5-10-10v-17.2
	C55.7,387,60.2,382.5,65.7,382.4L65.7,382.4z M147.6,382.4v-78.1h-36.7v78.1H147.6z M99.8,382.4H83.4V265.9
	c13.2,1.6,26.2-4.4,33.5-15.7c10.4,16.1,32,20.7,48.1,10.3c4.1-2.7,7.6-6.2,10.3-10.3c10.4,16.1,32,20.7,48.1,10.3
	c4.1-2.7,7.6-6.2,10.3-10.3c7.2,11.2,20.2,17.3,33.5,15.7v116.5H158.5v-83.6c0-3-2.5-5.5-5.5-5.5l0,0h-47.7c-3,0-5.5,2.5-5.5,5.5
	l0,0L99.8,382.4L99.8,382.4z M233,305.3h-41.7v26.2H233V305.3z M185.8,294.3c-3,0-5.5,2.5-5.5,5.5V337c0,3,2.5,5.5,5.5,5.5l0,0h52.7
	c3,0,5.5-2.5,5.5-5.5l0,0v-37.2c0-3-2.5-5.5-5.5-5.5l0,0L185.8,294.3z M186.2,109.8c-3-0.1-5.4-2.7-5.3-5.7c0.1-2.9,2.4-5.2,5.3-5.3
	h250.9c3,0.1,5.4,2.7,5.3,5.7c-0.1,2.9-2.4,5.2-5.3,5.3H186.2z M145.3,98.8c3,0,5.5,2.5,5.5,5.5c0,3-2.5,5.5-5.5,5.5
	c-3,0-5.5-2.5-5.5-5.5C139.8,101.2,142.2,98.8,145.3,98.8C145.3,98.8,145.3,98.8,145.3,98.8z M110.1,98.8c3,0,5.5,2.5,5.5,5.5
	c0,3-2.5,5.5-5.5,5.5c-3,0-5.5-2.5-5.5-5.5C104.6,101.2,107,98.8,110.1,98.8C110.1,98.8,110.1,98.8,110.1,98.8z M74.9,98.8
	c3,0,5.5,2.5,5.5,5.5c0,3-2.5,5.5-5.5,5.5c-3,0-5.5-2.5-5.5-5.5C69.4,101.2,71.9,98.8,74.9,98.8C74.9,98.8,74.9,98.8,74.9,98.8z
	 M29.9,58.3h445.3c11.5,0,20.8,9.3,20.8,20.8v353.8c0,11.5-9.3,20.8-20.8,20.8H36.8c-11.5,0-20.8-9.3-20.8-20.8V72.2
	C16,64.5,22.2,58.3,29.9,58.3L29.9,58.3z M485,142v290.9c0,5.4-4.4,9.8-9.8,9.8H36.8c-5.4,0-9.8-4.4-9.8-9.8V142H485z M27,131h458
	V79.1c0-5.4-4.4-9.8-9.8-9.8H29.9c-1.6,0-2.9,1.3-2.9,2.9L27,131z"/>
</svg>
