<?xml version="1.0" encoding="utf-8"?>
<!-- Generator: Adobe Illustrator 28.3.0, SVG Export Plug-In . SVG Version: 6.00 Build 0)  -->
<svg version="1.1" id="Слой_1" xmlns="http://www.w3.org/2000/svg" xmlns:xlink="http://www.w3.org/1999/xlink" x="0px" y="0px"
	 viewBox="0 0 512 512" style="enable-background:new 0 0 512 512;" xml:space="preserve">
<style type="text/css">
	.st0{fill:#FFFFFF;}
</style>
<path class="st0" d="M507.6,372.5l-52.5-26.2l-33.4-86.9c-0.8-2.1-2.4-3.7-4.5-4.6L210,172c-3-1.2-6.3-0.5-8.6,1.8l-27.6,27.6
	c-2.2,2.3-2.9,5.6-1.7,8.6l82.8,207.2c0.8,2.1,2.5,3.7,4.6,4.5l86.9,33.4l26.2,52.5c1.1,2.3,3.3,4,5.9,4.4c0.4,0,0.9,0,1.3,0
	c2.1,0,4.1-0.9,5.6-2.4l124.3-124.3c1.9-1.8,2.7-4.4,2.4-6.9C511.6,375.8,509.9,373.6,507.6,372.5L507.6,372.5z M188.8,208.9
	l4.4-4.4l103.2,103.2c-15,21.2-9.9,50.6,11.3,65.6s50.6,9.9,65.6-11.3s9.9-50.6-11.3-65.6c-16.3-11.5-38-11.5-54.3,0L204.5,193.2
	l4.4-4.4L408,268.4l31.4,81.7l-89.3,89.3L268.4,408L188.8,208.9z M334.8,303.7c17.2,0,31.1,14,31,31.1c0,17.2-14,31.1-31.1,31
	c-17.2,0-31.1-14-31-31.1c0-8.2,3.3-16.1,9.1-22C318.6,307,326.6,303.7,334.8,303.7z M381.9,490.5l-20-40l88.5-88.5l40,20
	L381.9,490.5z"/>
<path class="st0" d="M153,428c-3.2-3-8.1-3-11.3,0l-10.2,10.2c-55.6-75.4-57.2-177.8-4-255c19.9,10.9,44.8,3.7,55.7-16.2
	c6.7-12.3,6.8-27.1,0.1-39.4c77.1-53.2,179.5-51.6,255,4l-10.3,10c-1.5,1.5-2.3,3.5-2.3,5.6c0,2.1,0.8,4.2,2.3,5.7l35.3,35
	c3.1,3.1,8.2,3.1,11.3,0l35.1-35.1c3.1-3.1,3.1-8.2,0-11.3c0,0,0,0,0,0l-35.1-35.1c-3.1-3.1-8.2-3.1-11.3,0L449.7,120
	c-68-51.2-158.4-61.7-236.4-27.5l46.1-46c12.2,5.8,26.9,0.7,32.7-11.6c5.8-12.2,0.7-26.9-11.6-32.7s-26.9-0.7-32.7,11.6
	c-3.2,6.8-3.2,14.6,0.1,21.4l-77.8,78c-18.8-12.6-44.4-7.6-57,11.2c-9.3,13.8-9.3,31.9,0,45.8l-78,77.8
	c-12.2-5.9-26.9-0.9-32.8,11.3c-5.9,12.2-0.9,26.9,11.3,32.8c12.2,5.9,26.9,0.9,32.8-11.3c3.3-6.8,3.3-14.7,0-21.5l46.1-46
	c-34.3,78-23.8,168.3,27.4,236.4l-13.5,13.6c-3.1,3.1-3.1,8.2,0,11.3l35.1,35.1c1.5,1.5,3.5,2.4,5.6,2.4c2.1,0,4.2-0.8,5.7-2.4
	l35.1-35.1c3.1-3.1,3.1-8.2,0-11.3L153,428z M469,123.4l23.8,23.8L469,170.9l-23.8-23.8L469,123.4z M264,18.5c3.3-3.3,8.7-3.4,12,0
	c3.3,3.3,3.4,8.7,0,12c-3.3,3.3-8.7,3.4-12,0c0,0,0,0,0,0C260.7,27.2,260.7,21.8,264,18.5C264,18.5,264,18.5,264,18.5z M129.6,129.6
	c9.7-9.8,25.6-9.8,35.4-0.1c0,0,0.1,0.1,0.1,0.1c9.8,9.8,9.8,25.7,0,35.5c-9.8,9.8-25.7,9.8-35.5,0
	C119.8,155.3,119.8,139.4,129.6,129.6C129.6,129.6,129.6,129.6,129.6,129.6z M30.6,276c-3.6,3-9,2.5-12-1.1c-2.6-3.2-2.6-7.8,0-10.9
	c3.3-3.3,8.7-3.3,12,0C33.9,267.3,33.9,272.7,30.6,276C30.6,276,30.6,276,30.6,276z M147.3,492.5l-23.8-23.8l23.8-23.8l23.8,23.8
	L147.3,492.5z"/>
</svg>
