<?xml version="1.0" encoding="utf-8"?>
<!-- Generator: Adobe Illustrator 28.3.0, SVG Export Plug-In . SVG Version: 6.00 Build 0)  -->
<svg version="1.1" id="Layer_1" xmlns="http://www.w3.org/2000/svg" xmlns:xlink="http://www.w3.org/1999/xlink" x="0px" y="0px"
	 viewBox="0 0 512 512" style="enable-background:new 0 0 512 512;" xml:space="preserve">
<style type="text/css">
	.st0{fill:#FFFFFF;}
</style>
<g>
	<g>
		<path class="st0" d="M304.8,447.1h-53.3c-4.1,0-7.4,3.3-7.4,7.4s3.3,7.4,7.4,7.4h53.3c4.1,0,7.4-3.3,7.4-7.4
			S309,447.1,304.8,447.1z"/>
		<path class="st0" d="M251.6,65.6h53.3c4.1,0,7.4-3.3,7.4-7.4s-3.3-7.4-7.4-7.4h-53.3c-4.1,0-7.4,3.3-7.4,7.4
			S247.4,65.6,251.6,65.6z"/>
		<path class="st0" d="M480.8,138.7H442V58.3c0-19.2-15.5-34.7-34.6-34.7H149.1c-19.2,0-34.8,15.6-34.8,34.8v209.3h-10.7
			c-3.6,0-6.6,2.5-7.3,6l-3,15c-4.7,1.4-9.1,3.1-13.4,5.2l-12.2-8.9c-2.9-2.2-7-1.9-9.5,0.6l-27.6,26.3c-2.6,2.5-3,6.5-1.1,9.5
			l8.4,12.6c-0.8,1.4-1.6,2.9-2.3,4.6c-1.2,2.7-2.5,5.6-3.5,8.5l-15,2.3c-3.6,0.5-6.2,3.6-6.3,7.2l-0.9,38.1
			c-0.1,3.6,2.5,6.8,6.1,7.5l14.9,2.9c1.3,4.5,3,9,5.1,13.3l-9.1,12.3c-2.2,2.9-1.9,7,0.6,9.6l26.3,27.5c2.5,2.6,6.5,3,9.5,1
			l12.7-8.5c4.2,2.3,8.6,4.2,13,5.8l2.2,15.7c0.5,3.6,3.6,6.4,7.4,6.4h308.8c19.2,0,34.7-15.6,34.7-34.8v-99.9h38.8
			c11.9,0,21.5-9.6,21.5-21.5V160.3C502.3,148.4,492.7,138.7,480.8,138.7L480.8,138.7z M149.1,38.6h258.2c10.9,0,19.7,8.8,19.7,19.8
			v19.2H129.3V58.4C129.3,47.5,138.2,38.6,149.1,38.6z M102.9,459.4c-0.4-2.9-2.5-5.3-5.4-6.1c-6.3-1.8-12.4-4.5-18.2-8.1
			c-2.5-1.6-5.7-1.5-8.1,0.2L60,453l-17.6-18.4l8.1-10.9c1.7-2.3,1.9-5.4,0.5-8c-3.2-6.1-5.6-12.3-7.1-18.7c-0.7-2.9-2.9-5-5.8-5.6
			l-13.3-2.6l0.6-25.5l13.5-2.1c2.9-0.5,5.2-2.5,6.1-5.3c1.1-3.9,2.6-7.5,4.2-11c1.3-2.9,2.6-5.2,3.9-7.3c1.6-2.5,1.5-5.7-0.1-8.1
			l-7.4-11.2L64,300.6l10.9,8c2.3,1.7,5.4,1.9,8,0.5c5.4-2.9,11.2-5.3,18-7.1l0.9-0.2c2.7-0.8,4.8-2.9,5.4-5.7l2.7-13.4h12h0.1
			c0,0,0,0,0.1,0h13.3l2,13.9c0.4,2.9,2.5,5.3,5.3,6.1c6.4,1.9,12.6,4.6,18.3,8.1c2.5,1.5,5.6,1.5,8.1-0.2l11.3-7.6l17.5,18.4
			l-8.1,10.9c-1.7,2.3-1.9,5.5-0.5,8.1c3.1,5.7,5.6,12,7.2,18.7c0.7,2.8,2.9,5,5.7,5.5l13.2,2.6l-0.6,25.6l-13.5,2.1
			c-2.9,0.5-5.2,2.5-6,5.3c-1.9,6.5-4.7,12.6-8.1,18.2c-1.6,2.5-1.5,5.6,0.2,8.1l7.5,11.3l-18.5,17.7l-10.9-8
			c-2.3-1.7-5.4-1.9-8-0.5c-6,3.3-12.3,5.7-18.7,7.3c-2.8,0.7-5,2.9-5.6,5.7l-2.7,13.5H105L102.9,459.4z M407.3,473.4H145.7l1.2-6.1
			c4.6-1.4,9.1-3.1,13.4-5.2l9.7,7.1c0.2,0.2,0.5,0.3,0.8,0.5l1.7,1.3c2.9,2.2,7,1.9,9.6-0.6l27.5-26.3c2.6-2.5,3-6.5,1.1-9.5
			l-0.1-0.2h216.4v19.1C427.1,464.5,418.2,473.4,407.3,473.4L407.3,473.4z M427.1,419.5H203.6c1.7-3.5,3.3-7,4.7-10.7l15-2.3
			c3.6-0.5,6.2-3.6,6.3-7.2l0.9-38.1c0.1-3.6-2.4-6.8-6-7.5l-14.9-3c-1.4-4.7-3.1-9.2-5.2-13.3l9-12.2c2.2-2.9,1.9-7-0.6-9.6
			L186.6,288c-2.5-2.6-6.5-3-9.5-1l-12.6,8.5c-4.2-2.2-8.5-4.2-13-5.7l-2.3-15.7c-0.5-3.6-3.6-6.4-7.4-6.4h-12.4V92.5h297.8v46.3
			H249.9c-11.9,0-21.5,9.6-21.5,21.5v171.9c0,11.9,9.6,21.5,21.5,21.5h26.8V376c0,5.7,3.3,10.9,8.5,13.2c1.9,0.9,4,1.3,6,1.3
			c3.4,0,6.8-1.2,9.5-3.6l37.5-33.2h88.7L427.1,419.5z M487.4,332.2c0,3.6-2.9,6.6-6.6,6.6H335.4c-1.8,0-3.6,0.7-5,1.9l-38.9,34.4
			v-28.8c0-4.1-3.3-7.4-7.4-7.4h-34.3c-3.6,0-6.6-2.9-6.6-6.6v-172c0-3.6,2.9-6.6,6.6-6.6h230.9c3.6,0,6.6,2.9,6.6,6.6L487.4,332.2
			L487.4,332.2z"/>
		<path class="st0" d="M337.5,269.9l-22.1-22.1l22.1-22.1c2.9-2.9,2.9-7.6,0-10.6c-2.9-2.9-7.6-2.9-10.6,0l-27.4,27.4
			c-1.4,1.4-2.2,3.3-2.2,5.3c0,2,0.8,3.9,2.2,5.3l27.4,27.4c1.5,1.5,3.3,2.2,5.3,2.2s3.8-0.7,5.3-2.2
			C340.4,277.6,340.4,272.8,337.5,269.9L337.5,269.9z"/>
		<path class="st0" d="M403.7,215.1c-2.9-2.9-7.6-2.9-10.6,0c-2.9,2.9-2.9,7.7,0,10.6l22.1,22.1l-22.1,22.1c-2.9,2.9-2.9,7.6,0,10.6
			c1.5,1.5,3.4,2.2,5.3,2.2c1.9,0,3.8-0.7,5.3-2.2l27.4-27.4c1.4-1.4,2.2-3.3,2.2-5.3c0-2-0.8-3.9-2.2-5.3L403.7,215.1z"/>
		<path class="st0" d="M385.9,173.7c-4-1.1-8.1,1.2-9.2,5.2l-37.2,133.7c-1.1,4,1.2,8.1,5.2,9.2c0.7,0.2,1.3,0.3,2,0.3
			c3.3,0,6.3-2.2,7.2-5.4l37.2-133.7C392.2,179,389.9,174.9,385.9,173.7L385.9,173.7z"/>
		<path class="st0" d="M171,378c0-28.1-22.8-50.9-50.9-50.9c-28,0-50.8,22.8-50.8,50.9s22.8,50.9,50.8,50.9
			C148.2,428.9,171,406.1,171,378z M120.1,414c-19.8,0-35.9-16.1-35.9-36s16.1-36,35.9-36c19.9,0,36,16.1,36,36S139.9,414,120.1,414
			z"/>
	</g>
</g>
</svg>
