<?xml version="1.0" encoding="utf-8"?>
<!-- Generator: Adobe Illustrator 28.3.0, SVG Export Plug-In . SVG Version: 6.00 Build 0)  -->
<svg version="1.1" id="Capa_1" xmlns="http://www.w3.org/2000/svg" xmlns:xlink="http://www.w3.org/1999/xlink" x="0px" y="0px"
	 viewBox="0 0 512 512" style="enable-background:new 0 0 512 512;" xml:space="preserve">
<style type="text/css">
	.st0{fill:none;stroke:#FFFFFF;stroke-width:15;stroke-miterlimit:10;}
</style>
<g>
	<path class="st0" d="M472.8,43.1L472.8,43.1C455.5,25.8,427,27,411.3,45.8l-71,85l44.8,44.8l85-71
		C488.9,88.9,490.2,60.4,472.8,43.1z"/>
	<path class="st0" d="M504.5,188.4v226.3c0,36.7-29.7,66.4-66.4,66.4h-61.4c36.7,0,66.4-29.7,66.4-66.4V188.4H504.5z"/>
	<circle class="st0" cx="88.8" cy="133.3" r="20"/>
	<circle class="st0" cx="159.4" cy="133.3" r="20"/>
	<circle class="st0" cx="229.9" cy="133.3" r="20"/>
	<g>
		<path class="st0" d="M340.3,130.8L384,78.5c-2.4-0.3-4.8-0.4-7.3-0.4H73.9c-36.7,0-66.4,29.7-66.4,66.4v43.9h250.9
			C274.5,168.9,278.6,143.4,340.3,130.8z"/>
		<path class="st0" d="M385.1,175.6c-0.9,4.4-2,8.7-3.4,12.8h61.4v-43.9c0-5.4-0.7-10.7-1.9-15.8L385.1,175.6z"/>
	</g>
	<path class="st0" d="M479.8,92.8c-2.4,4.4-5.7,8.4-9.8,11.8l-28.9,24.1c1.2,5.1,1.9,10.3,1.9,15.8v43.9h61.4v-43.9
		C504.5,123.6,494.9,105,479.8,92.8z"/>
	<path class="st0" d="M381.7,188.4c-17.6,53.5-72.3,75.6-121,48.6c-16.2-9-19.4-31.1-6.3-44.2c1.4-1.4,2.7-2.9,4-4.4H7.5v226.3
		c0,36.7,29.7,66.4,66.4,66.4h302.8c36.7,0,66.4-29.7,66.4-66.4V188.4H381.7z"/>
	<path class="st0" d="M340.3,130.8c-66.4,13.5-66.1,42.1-85.8,62c-13,13.2-9.9,35.3,6.3,44.2c52.4,29.1,111.8,1.2,124.3-61.4
		L340.3,130.8z"/>
	<path class="st0" d="M170.1,284.4H94.5c-14.2,0-25.7,11.5-25.7,25.7v75.6c0,14.2,11.5,25.7,25.7,25.7h75.6
		c14.2,0,25.7-11.5,25.7-25.7v-75.6C195.8,295.9,184.3,284.4,170.1,284.4z"/>
	<g>
		<path class="st0" d="M364.6,288.4H256.2c-11.3,0-20.5,9.2-20.5,20.5l0,0c0,11.3,9.2,20.5,20.5,20.5h108.4
			c11.3,0,20.5-9.2,20.5-20.5l0,0C385.1,297.6,375.9,288.4,364.6,288.4z"/>
		<path class="st0" d="M364.6,366.3H256.2c-11.3,0-20.5,9.2-20.5,20.5l0,0c0,11.3,9.2,20.5,20.5,20.5h108.4
			c11.3,0,20.5-9.2,20.5-20.5l0,0C385.1,375.4,375.9,366.3,364.6,366.3z"/>
	</g>
</g>
</svg>
